<?xml version="1.0" encoding="utf-8"?>
<!DOCTYPE svg PUBLIC "-//W3C//DTD SVG 1.1//EN" "http://www.w3.org/Graphics/SVG/1.1/DTD/svg11.dtd">
<svg version="1.1" xmlns="http://www.w3.org/2000/svg" xmlns:xlink="http://www.w3.org/1999/xlink" viewBox="0 0 24 24">
	<symbol id="close" viewBox="0 0 24 24">
		<path fill="currentColor" d="M19 6l-1-1-6 6-6-6-1 1 6 6-6 6 1 1 6-6 6 6 1-1-6-6 6-6z"/>
	</symbol>
	<symbol id="plus" viewBox="0 0 24 24">
		<path fill="currentColor" d="M19 13h-6v6h-2v-6H5v-2h6V5h2v6h6v2z"/>
	</symbol>
	<symbol id="pencil" viewBox="0 0 24 24">
		<path fill="currentColor" d="M21 7V6l-3-3h-1l-2 2 4 4M3 17v4h4l11-11-4-4L3 17z"/>
	</symbol>
	<symbol id="email" viewBox="0 0 24 24">
		<path fill="currentColor" d="M20 8l-8 5-8-5V6l8 5 8-5m0-2H4a2 2 0 00-2 2v12a2 2 0 002 2h16a2 2 0 002-2V6a2 2 0 00-2-2z"/>
	</symbol>
	<symbol id="domain" viewBox="0 0 24 24">
		<path fill="currentColor" d="M18 15h-2v2h2m0-6h-2v2h2m2 6h-8v-2h2v-2h-2v-2h2v-2h-2V9h8M10 7H8V5h2m0 6H8V9h2m0 6H8v-2h2m0 6H8v-2h2M6 7H4V5h2m0 6H4V9h2m0 6H4v-2h2m0 6H4v-2h2m6-10V3H2v18h20V7H12z"/>
	</symbol>
	<symbol id="clock" viewBox="0 0 24 24">
		<path fill="currentColor" d="M12 2A10 10 0 002 12a10 10 0 0010 10 10 10 0 0010-10A10 10 0 0012 2m4 14l-5-3V7h2v5l4 3-1 1z"/>
	</symbol>
	<symbol id="cellphone" viewBox="0 0 24 24">
		<path fill="currentColor" d="M17 19H7V5h10m0-4H7a2 2 0 00-2 2v18a2 2 0 002 2h10a2 2 0 002-2V3a2 2 0 00-2-2z"/>
	</symbol>
	<symbol id="map-marker" viewBox="0 0 24 24">
		<path fill="currentColor" d="M12 11.5A2.5 2.5 0 019.5 9 2.5 2.5 0 0112 6.5 2.5 2.5 0 0114.5 9a2.5 2.5 0 01-2.5 2.5M12 2a7 7 0 00-7 7c0 5.3 7 13 7 13s7-7.8 7-13a7 7 0 00-7-7z"/>
	</symbol>
	<symbol id="youtube" viewBox="0 0 24 24">
		<path fill="currentColor" d="M10 15l5.19-3L10 9v6m11.56-7.83c.13.47.22 1.1.28 1.9.07.8.1 1.49.1 2.09L22 12c0 2.19-.16 3.8-.44 4.83-.25.9-.83 1.48-1.73 1.73-.47.13-1.33.22-2.65.28-1.3.07-2.49.1-3.59.1L12 19c-4.19 0-6.8-.16-7.83-.44-.9-.25-1.48-.83-1.73-1.73-.13-.47-.22-1.1-.28-1.9-.07-.8-.1-1.49-.1-2.09L2 12c0-2.19.16-3.8.44-4.83.25-.9.83-1.48 1.73-1.73.47-.13 1.33-.22 2.65-.28 1.3-.07 2.49-.1 3.59-.1L12 5c4.19 0 6.8.16 7.83.44.9.25 1.48.83 1.73 1.73z"/>
	</symbol>
	<symbol id="logout" viewBox="0 0 24 24">
		<path fill="currentColor" d="M16 17v-3H9v-4h7V7l5 5-5 5M14 2a2 2 0 012 2v2h-2V4H5v16h9v-2h2v2a2 2 0 01-2 2H5a2 2 0 01-2-2V4a2 2 0 012-2h9z"/>
	</symbol>
	<symbol id="login" viewBox="0 0 24 24">
		<path fill="currentColor" d="M10 17v-3H3v-4h7V7l5 5-5 5m0-15h9a2 2 0 012 2v16a2 2 0 01-2 2h-9a2 2 0 01-2-2v-2h2v2h9V4h-9v2H8V4a2 2 0 012-2z"/>
	</symbol>
	<symbol id="facebook" viewBox="0 0 24 24">
		<path fill="currentColor" d="M12 2.04a10.03 10.03 0 00-1.56 19.92v-7H7.9v-2.9h2.54V9.85c0-2.51 1.49-3.89 3.78-3.89 1.09 0 2.23.19 2.23.19v2.47h-1.26c-1.24 0-1.63.77-1.63 1.56v1.88h2.78l-.45 2.9h-2.33v7a10 10 0 008.44-9.9c0-5.53-4.5-10.02-10-10.02z"/>
	</symbol>
	<symbol id="cart" viewBox="0 0 24 24">
		<path fill="currentColor" d="M17 18a2 2 0 00-2 2 2 2 0 002 2 2 2 0 002-2 2 2 0 00-2-2M1 2v2h2l3.6 7.6L5.2 14a2 2 0 00-.2 1 2 2 0 002 2h12v-2H7.4a.3.3 0 01-.2-.3l.9-1.7h7.5a2 2 0 001.7-1l3.6-6.5.1-.5a1 1 0 00-1-1H5.2l-1-2M7 18a2 2 0 00-2 2 2 2 0 002 2 2 2 0 002-2 2 2 0 00-2-2z"/>
	</symbol>
	<symbol id="account-group" viewBox="0 0 24 24">
		<path fill="currentColor" d="M12 5.5A3.5 3.5 0 0115.5 9a3.5 3.5 0 01-3.5 3.5A3.5 3.5 0 018.5 9 3.5 3.5 0 0112 5.5M5 8c.6 0 1 .2 1.5.4-.1 1.4.3 2.9 1.2 4A3 3 0 015 14a3 3 0 01-3-3 3 3 0 013-3m14 0a3 3 0 013 3 3 3 0 01-3 3 3 3 0 01-2.7-1.6 5.5 5.5 0 001.2-4A3 3 0 0119 8M5.5 18.3c0-2.1 3-3.8 6.5-3.8 3.6 0 6.5 1.7 6.5 3.8V20h-13v-1.8M0 20v-1.5c0-1.4 1.9-2.6 4.5-2.9a4 4 0 00-1 2.7V20H0m24 0h-3.5v-1.8c0-1-.4-2-1-2.6 2.6.3 4.5 1.5 4.5 2.9V20z"/>
	</symbol>
	<symbol id="minus" viewBox="0 0 24 24">
		<path fill="currentColor" d="M19 13H5v-2h14v2z"/>
	</symbol>
	<symbol id="menu-down" viewBox="0 0 24 24">
		<path fill="currentColor" d="M7 10l5 5 5-5H7z"/>
	</symbol>
	<symbol id="hapifish" viewBox="0 0 31 39">
		<path d="M3.02 30.17l-3-2.22-.02-.96c0-.52 0-.95.02-.95.03 0 1.39 1 3.02 2.2a80.9 80.9 0 003.07 2.21c.03 0 1.41-.99 3.07-2.2a165.5 165.5 0 013.03-2.21c.02 0 .03.43.03.96v.96l-3.02 2.2a78.31 78.31 0 01-3.11 2.22c-.06.01-1.45-.98-3.1-2.21zM19 28.97l-.03-3.44-2.61 1.92a110.43 110.43 0 01-2.66 1.92c-.02 0-.03-.43-.02-.96l.02-.95 2.66-1.95L19 23.57v-1.15h-5.34v-1.59H19v-1.71L19 17.4l-.88-.65-.9-.65V13.3l-.03-2.82-1.05.88-1.05.88V15.96l1.1.92 1.1.94v.92c0 .51-.02.93-.05.93-.03 0-.86-.68-1.85-1.51l-1.8-1.52v-5.7l.01-5.7 1.64-1.37 1.85-1.54.2-.17v1.95l-1.1.92-1.1.92v4.33l.6-.5 1.06-.88.48-.4V5.02l.89-.64.89-.65v-.95c0-.5.02-1.35.05-1.86L19.1 0h1.4V3.73l.9.65.88.65V8.5l.94.78 1.07.9c.12.09.13 0 .13-2.07V5.96l-1.1-.93-1.1-.93v-.93c0-.65.01-.93.07-.91.04.01.88.7 1.85 1.5l1.77 1.48v2.8c0 1.53-.01 4.11-.04 5.73l-.05 2.95-1.73 1.46c-.97.8-1.78 1.47-1.81 1.48-.04.01-.07-.37-.07-.92v-.94l1.1-.92 1.11-.93v-3.7l-1.05-.88-1.05-.88-.02 2.8-.02 2.8-.89.65-.89.65v3.44h5.35v1.6H20.5V23.56l2.67 1.96 2.68 1.97v1.95l-.34-.25-2.66-1.96-2.31-1.7-.02 3.43-.02 3.44h-1.49l-.02-3.44zm1.33-13.4l.46-.34v-3.8H18.72v3.83l.44.33c.25.18.51.32.58.32.08 0 .34-.15.6-.34zm.46-7.71V5.87l-.5-.37c-.28-.2-.51-.36-.53-.36-.03 0-.26.16-.54.36l-.5.37V9.84H20.8V7.86z"/><path d="M3.04 25.55L.02 23.32 0 16.52c0-3.73 0-6.93.02-7.1l.05-.3H5.4V7.45l2.07-1.5A51.44 51.44 0 009.53 4.4c0-.06-3.35-2.5-3.42-2.48L3.74 3.65c-1.28.94-2.34 1.7-2.36 1.7-.02 0-.03-.42-.02-.95l.02-.96 2.35-1.73A25 25 0 016.19.02c.06.02 1.16.8 2.44 1.75l2.33 1.72v1.83L8.94 6.81 6.9 8.28v.42l-.01.41h5.34v14.21l-3 2.2a190.2 190.2 0 01-3.08 2.23c-.05.02-1.45-.97-3.12-2.2zm2.36-4.36v-4.12H1.48V22.46l1.94 1.43 1.96 1.43c.01 0 .02-1.86.02-4.13zm3.49 2.65l1.85-1.37v-5.4H6.9v2.16c0 1.18-.02 3.05-.05 4.13-.04 1.75-.04 1.97.06 1.91.06-.03.95-.68 1.98-1.43zM5.4 13.1v-2.38H1.48v4.77H5.4v-2.39zm5.34 0v-2.38H6.9v4.77h3.84v-2.39z"/>
	</symbol>
</svg>

